<svg width="155" height="30" viewBox="0 0 155 30" fill="none" xmlns="http://www.w3.org/2000/svg">
<path d="M51.152 4.34397C51.6853 4.3653 52.368 4.38664 53.2 4.40797C54.032 4.4293 54.864 4.43997 55.696 4.43997C56.7413 4.43997 57.7333 4.4293 58.672 4.40797C59.6106 4.38664 60.272 4.37597 60.656 4.37597C63.1733 4.37597 65.0506 4.8453 66.288 5.78397C67.5466 6.72264 68.176 7.92797 68.176 9.39997C68.176 10.1466 67.9733 10.8933 67.568 11.64C67.184 12.3866 66.5546 13.0586 65.68 13.656C64.8266 14.2533 63.7066 14.7013 62.32 15V15.064C64.1973 15.2346 65.68 15.6186 66.768 16.216C67.8773 16.792 68.6666 17.4853 69.136 18.296C69.6053 19.0853 69.84 19.9173 69.84 20.792C69.84 22.0933 69.4986 23.2133 68.816 24.152C68.1546 25.0693 67.1946 25.7733 65.936 26.264C64.6773 26.7546 63.1626 27 61.392 27C60.9226 27 60.208 26.9893 59.248 26.968C58.288 26.9253 57.1253 26.904 55.76 26.904C54.8853 26.904 54.032 26.9146 53.2 26.936C52.368 26.936 51.6853 26.9573 51.152 27V26.36C51.856 26.3173 52.3786 26.232 52.72 26.104C53.0826 25.976 53.3173 25.72 53.424 25.336C53.552 24.952 53.616 24.376 53.616 23.608V7.73597C53.616 6.94664 53.552 6.37064 53.424 6.00797C53.3173 5.62397 53.0826 5.36797 52.72 5.23997C52.3786 5.09064 51.856 5.0053 51.152 4.98397V4.34397ZM60.112 4.98397C59.2373 4.98397 58.6613 5.1653 58.384 5.52797C58.128 5.89064 58 6.62664 58 7.73597V23.608C58 24.3546 58.064 24.92 58.192 25.304C58.32 25.688 58.544 25.944 58.864 26.072C59.184 26.2 59.6533 26.264 60.272 26.264C62.0213 26.264 63.28 25.784 64.048 24.824C64.8373 23.8426 65.232 22.456 65.232 20.664C65.232 19.0213 64.8053 17.752 63.952 16.856C63.12 15.96 61.7333 15.512 59.792 15.512H56.88C56.88 15.512 56.88 15.4266 56.88 15.256C56.88 15.064 56.88 14.968 56.88 14.968H59.632C60.72 14.968 61.5626 14.7333 62.16 14.264C62.7573 13.7733 63.1626 13.1333 63.376 12.344C63.5893 11.5333 63.696 10.6693 63.696 9.75197C63.696 8.1733 63.4186 6.9893 62.864 6.19997C62.3093 5.3893 61.392 4.98397 60.112 4.98397Z" fill="black"/>
<path d="M79.8647 10.008C81.7421 10.008 83.2141 10.5733 84.2807 11.704C85.3474 12.8346 85.8807 14.6373 85.8807 17.112H75.0967L75.0647 16.504H82.1687C82.2114 15.4586 82.1474 14.4986 81.9767 13.624C81.8061 12.728 81.5287 12.0133 81.1447 11.48C80.7821 10.9466 80.3021 10.68 79.7047 10.68C78.8941 10.68 78.1901 11.16 77.5927 12.12C76.9954 13.0586 76.6221 14.6053 76.4727 16.76L76.6007 16.952C76.5581 17.2293 76.5261 17.528 76.5047 17.848C76.5047 18.168 76.5047 18.488 76.5047 18.808C76.5047 20.28 76.7181 21.496 77.1447 22.456C77.5714 23.416 78.1261 24.12 78.8087 24.568C79.4914 25.016 80.1954 25.24 80.9207 25.24C81.4114 25.24 81.9127 25.1653 82.4247 25.016C82.9367 24.8666 83.4381 24.5893 83.9287 24.184C84.4194 23.7786 84.8674 23.2026 85.2727 22.456L85.8807 22.712C85.6461 23.4586 85.2514 24.2053 84.6967 24.952C84.1634 25.6773 83.4701 26.2746 82.6167 26.744C81.7634 27.2133 80.7607 27.448 79.6087 27.448C78.1581 27.448 76.8781 27.128 75.7687 26.488C74.6594 25.848 73.7954 24.8986 73.1767 23.64C72.5581 22.36 72.2487 20.8026 72.2487 18.968C72.2487 17.0266 72.5687 15.3946 73.2087 14.072C73.8701 12.7493 74.7767 11.7466 75.9287 11.064C77.0807 10.36 78.3927 10.008 79.8647 10.008Z" fill="black"/>
<path d="M93.973 1.94397V24.024C93.973 24.92 94.133 25.528 94.453 25.848C94.7943 26.168 95.3596 26.328 96.149 26.328V27C95.765 26.9786 95.1783 26.9573 94.389 26.936C93.621 26.8933 92.8316 26.872 92.021 26.872C91.2316 26.872 90.421 26.8933 89.589 26.936C88.7783 26.9573 88.1703 26.9786 87.765 27V26.328C88.5543 26.328 89.109 26.168 89.429 25.848C89.7703 25.528 89.941 24.92 89.941 24.024V5.78397C89.941 4.82397 89.7916 4.11997 89.493 3.67197C89.1943 3.20264 88.6183 2.96797 87.765 2.96797V2.29597C88.4476 2.35997 89.109 2.39197 89.749 2.39197C90.5596 2.39197 91.317 2.35997 92.021 2.29597C92.725 2.21064 93.3756 2.0933 93.973 1.94397Z" fill="black"/>
<path d="M103.785 1.94397V24.024C103.785 24.92 103.945 25.528 104.265 25.848C104.607 26.168 105.172 26.328 105.961 26.328V27C105.577 26.9786 104.991 26.9573 104.201 26.936C103.433 26.8933 102.644 26.872 101.833 26.872C101.044 26.872 100.233 26.8933 99.4015 26.936C98.5908 26.9573 97.9828 26.9786 97.5775 27V26.328C98.3668 26.328 98.9215 26.168 99.2415 25.848C99.5828 25.528 99.7535 24.92 99.7535 24.024V5.78397C99.7535 4.82397 99.6041 4.11997 99.3055 3.67197C99.0068 3.20264 98.4308 2.96797 97.5775 2.96797V2.29597C98.2601 2.35997 98.9215 2.39197 99.5615 2.39197C100.372 2.39197 101.129 2.35997 101.833 2.29597C102.537 2.21064 103.188 2.0933 103.785 1.94397Z" fill="black"/>
<path d="M111.425 2.29597C112.193 2.29597 112.822 2.5093 113.313 2.93597C113.804 3.36264 114.049 3.92797 114.049 4.63197C114.049 5.33597 113.804 5.9013 113.313 6.32797C112.822 6.75464 112.193 6.96797 111.425 6.96797C110.657 6.96797 110.028 6.75464 109.537 6.32797C109.046 5.9013 108.801 5.33597 108.801 4.63197C108.801 3.92797 109.046 3.36264 109.537 2.93597C110.028 2.5093 110.657 2.29597 111.425 2.29597ZM113.665 10.104V24.024C113.665 24.92 113.825 25.528 114.145 25.848C114.486 26.168 115.052 26.328 115.841 26.328V27C115.457 26.9786 114.87 26.9573 114.081 26.936C113.292 26.8933 112.492 26.872 111.681 26.872C110.892 26.872 110.092 26.8933 109.281 26.936C108.47 26.9573 107.862 26.9786 107.457 27V26.328C108.246 26.328 108.801 26.168 109.121 25.848C109.462 25.528 109.633 24.92 109.633 24.024V13.976C109.633 12.9946 109.473 12.28 109.153 11.832C108.854 11.3626 108.289 11.128 107.457 11.128V10.456C108.14 10.52 108.801 10.552 109.441 10.552C110.23 10.552 110.977 10.52 111.681 10.456C112.406 10.3706 113.068 10.2533 113.665 10.104Z" fill="black"/>
<path d="M123.413 10.008C124.309 10.008 125.077 10.136 125.717 10.392C126.357 10.648 126.826 10.872 127.125 11.064C127.85 11.5973 128.287 11.256 128.437 10.04H129.141C129.098 10.6586 129.066 11.3946 129.045 12.248C129.023 13.08 129.013 14.2 129.013 15.608H128.309C128.202 14.8186 127.999 14.0506 127.701 13.304C127.402 12.5573 126.965 11.9386 126.389 11.448C125.813 10.936 125.055 10.68 124.117 10.68C123.455 10.68 122.901 10.872 122.453 11.256C122.026 11.64 121.813 12.184 121.813 12.888C121.813 13.528 122.005 14.0933 122.389 14.584C122.773 15.0533 123.263 15.5013 123.861 15.928C124.479 16.3333 125.119 16.7813 125.781 17.272C126.549 17.784 127.231 18.3066 127.829 18.84C128.426 19.352 128.906 19.928 129.269 20.568C129.631 21.1866 129.813 21.9226 129.813 22.776C129.813 23.7573 129.535 24.6 128.981 25.304C128.447 25.9866 127.733 26.52 126.837 26.904C125.962 27.2666 124.991 27.448 123.925 27.448C123.349 27.448 122.826 27.3946 122.357 27.288C121.887 27.1813 121.471 27.0426 121.109 26.872C120.831 26.7226 120.575 26.584 120.341 26.456C120.127 26.328 119.903 26.2213 119.669 26.136C119.455 26.0293 119.263 26.072 119.093 26.264C118.943 26.456 118.826 26.776 118.741 27.224H118.037C118.079 26.5413 118.111 25.7093 118.133 24.728C118.154 23.7466 118.165 22.4453 118.165 20.824H118.869C119.018 21.9973 119.242 23.032 119.541 23.928C119.861 24.8026 120.319 25.496 120.917 26.008C121.514 26.4986 122.282 26.744 123.221 26.744C123.626 26.744 124.01 26.6586 124.373 26.488C124.757 26.3173 125.066 26.0506 125.301 25.688C125.557 25.3253 125.685 24.8346 125.685 24.216C125.685 23.2773 125.365 22.4986 124.725 21.88C124.085 21.2613 123.285 20.6 122.325 19.896C121.599 19.3626 120.917 18.84 120.277 18.328C119.658 17.816 119.146 17.24 118.741 16.6C118.357 15.96 118.165 15.2026 118.165 14.328C118.165 13.368 118.41 12.5786 118.901 11.96C119.391 11.32 120.031 10.84 120.821 10.52C121.631 10.1786 122.495 10.008 123.413 10.008Z" fill="black"/>
<path d="M138.038 10.008C138.934 10.008 139.702 10.136 140.342 10.392C140.982 10.648 141.451 10.872 141.75 11.064C142.475 11.5973 142.912 11.256 143.062 10.04H143.766C143.723 10.6586 143.691 11.3946 143.67 12.248C143.648 13.08 143.638 14.2 143.638 15.608H142.934C142.827 14.8186 142.624 14.0506 142.326 13.304C142.027 12.5573 141.59 11.9386 141.014 11.448C140.438 10.936 139.68 10.68 138.742 10.68C138.08 10.68 137.526 10.872 137.078 11.256C136.651 11.64 136.438 12.184 136.438 12.888C136.438 13.528 136.63 14.0933 137.014 14.584C137.398 15.0533 137.888 15.5013 138.486 15.928C139.104 16.3333 139.744 16.7813 140.406 17.272C141.174 17.784 141.856 18.3066 142.454 18.84C143.051 19.352 143.531 19.928 143.894 20.568C144.256 21.1866 144.438 21.9226 144.438 22.776C144.438 23.7573 144.16 24.6 143.606 25.304C143.072 25.9866 142.358 26.52 141.462 26.904C140.587 27.2666 139.616 27.448 138.55 27.448C137.974 27.448 137.451 27.3946 136.982 27.288C136.512 27.1813 136.096 27.0426 135.734 26.872C135.456 26.7226 135.2 26.584 134.966 26.456C134.752 26.328 134.528 26.2213 134.294 26.136C134.08 26.0293 133.888 26.072 133.718 26.264C133.568 26.456 133.451 26.776 133.366 27.224H132.662C132.704 26.5413 132.736 25.7093 132.758 24.728C132.779 23.7466 132.79 22.4453 132.79 20.824H133.494C133.643 21.9973 133.867 23.032 134.166 23.928C134.486 24.8026 134.944 25.496 135.542 26.008C136.139 26.4986 136.907 26.744 137.846 26.744C138.251 26.744 138.635 26.6586 138.998 26.488C139.382 26.3173 139.691 26.0506 139.926 25.688C140.182 25.3253 140.31 24.8346 140.31 24.216C140.31 23.2773 139.99 22.4986 139.35 21.88C138.71 21.2613 137.91 20.6 136.95 19.896C136.224 19.3626 135.542 18.84 134.902 18.328C134.283 17.816 133.771 17.24 133.366 16.6C132.982 15.96 132.79 15.2026 132.79 14.328C132.79 13.368 133.035 12.5786 133.526 11.96C134.016 11.32 134.656 10.84 135.446 10.52C136.256 10.1786 137.12 10.008 138.038 10.008Z" fill="black"/>
<path d="M150.519 2.29597C151.287 2.29597 151.916 2.5093 152.407 2.93597C152.897 3.36264 153.143 3.92797 153.143 4.63197C153.143 5.33597 152.897 5.9013 152.407 6.32797C151.916 6.75464 151.287 6.96797 150.519 6.96797C149.751 6.96797 149.121 6.75464 148.631 6.32797C148.14 5.9013 147.895 5.33597 147.895 4.63197C147.895 3.92797 148.14 3.36264 148.631 2.93597C149.121 2.5093 149.751 2.29597 150.519 2.29597ZM152.759 10.104V24.024C152.759 24.92 152.919 25.528 153.239 25.848C153.58 26.168 154.145 26.328 154.935 26.328V27C154.551 26.9786 153.964 26.9573 153.175 26.936C152.385 26.8933 151.585 26.872 150.775 26.872C149.985 26.872 149.185 26.8933 148.375 26.936C147.564 26.9573 146.956 26.9786 146.551 27V26.328C147.34 26.328 147.895 26.168 148.215 25.848C148.556 25.528 148.727 24.92 148.727 24.024V13.976C148.727 12.9946 148.567 12.28 148.247 11.832C147.948 11.3626 147.383 11.128 146.551 11.128V10.456C147.233 10.52 147.895 10.552 148.535 10.552C149.324 10.552 150.071 10.52 150.775 10.456C151.5 10.3706 152.161 10.2533 152.759 10.104Z" fill="black"/>
<path fill-rule="evenodd" clip-rule="evenodd" d="M20.1511 0.0446709C24.7917 0.444999 29.094 1.84157 33.0346 4.22697C38.9509 7.80828 42.7717 13.2399 41.868 16.7846C41.6289 17.722 40.9968 18.6185 40.2666 19.0555L39.887 19.2827L40.3683 19.8881C41.013 20.6992 41.683 22.055 41.8753 22.9378C42.4256 25.4645 41.0776 27.2796 37.7875 28.4425C36.4788 28.905 36.0354 28.9982 35.7846 28.8632C35.5081 28.7143 35.4477 28.607 35.4461 28.2604C35.4444 27.8874 35.6118 27.7781 36.6417 27.4799C40.2143 26.4451 41.431 24.7571 40.3702 22.3071C39.6955 20.7489 37.9343 18.8875 35.716 17.388C34.8457 16.7998 32.1774 15.3218 32.1217 15.3971C32.1112 15.4112 32.1396 15.8098 32.1846 16.2829C32.2964 17.4575 32.2242 19.5005 32.0566 19.905C31.4885 21.2759 29.7776 21.6751 28.7669 20.6726C28.3103 20.2196 28.2076 19.9763 27.9525 18.7424C27.6815 17.4315 27.1444 15.5349 26.7315 14.4307C26.3845 13.5029 26.4874 13.5677 25.0082 13.3433C24.159 13.2145 23.4758 13.165 23.4758 13.2324C23.4758 13.248 23.5968 13.6249 23.7448 14.07C24.5375 16.4552 25.0533 19.7904 24.7753 20.7333C24.3985 22.0112 23.0584 22.6157 21.9046 22.0285C21.6552 21.9015 21.3497 21.662 21.2259 21.4961C21.102 21.3303 20.7799 20.5607 20.5102 19.7861C19.769 17.6573 19.161 16.298 18.0828 14.3588C17.6334 13.5504 17.4487 13.2955 17.314 13.2976C17.0828 13.3012 15.2278 13.6295 15.1836 13.6746C15.165 13.6937 15.3668 14.2259 15.6322 14.8574C16.2239 16.2653 16.6754 17.7623 16.9771 19.3176C17.2007 20.4701 17.2024 20.5078 17.0559 21.0225C16.6354 22.4998 14.8935 23.0247 13.7298 22.0246C13.5382 21.86 13.229 21.3166 12.7567 20.3142C12.3759 19.5061 11.8328 18.4417 11.5496 17.9488C10.9939 16.9813 10.0467 15.5083 9.93497 15.4379C9.83744 15.3763 8.2179 16.1707 7.23645 16.7616C3.80578 18.8268 1.50702 21.4748 1.25674 23.6499C1.10168 24.997 2.01513 26.1505 3.87795 26.96C6.97224 28.3048 12.8101 28.8598 22.7222 28.7514C25.2578 28.7237 28.0059 28.6533 28.8289 28.595C30.4386 28.4809 30.6895 28.5172 30.8221 28.8832C30.9255 29.1686 30.8396 29.496 30.6237 29.6394C30.2295 29.9012 27.6451 29.9993 21.1263 30C14.8333 30.0006 13.2685 29.9484 10.2212 29.6355C4.3654 29.0344 1.08785 27.6199 0.234059 25.3248C-0.816552 22.5011 1.73772 18.5986 6.52921 15.7067C6.97978 15.4349 7.31491 15.1912 7.27395 15.1654C7.23299 15.1395 6.94183 15.0187 6.62692 14.8968C5.52994 14.4725 4.51984 13.9493 4.41638 13.7519C4.28401 13.4992 4.38118 13.0474 4.59281 12.9318C4.87856 12.7755 5.16635 12.8321 5.93812 13.1963C6.35119 13.3911 7.19611 13.7383 7.81575 13.9678L8.94242 14.3849L9.53751 14.121C16.3792 11.087 24.5509 10.9606 31.64 13.7792C34.2083 14.8004 36.0998 15.9126 38.1796 17.6247L39.0083 18.3068L39.3006 18.146C40.1124 17.6995 40.6122 16.9629 40.7266 16.0442C40.8732 14.8668 40.0699 12.7543 38.8391 11.0804C37.7796 9.6395 36.1677 8.03656 34.5155 6.78079C33.7869 6.22689 33.8442 6.16767 33.6438 7.68051C33.4216 9.35716 33.1641 10.3501 32.8383 10.7871C32.0412 11.8557 30.4612 11.9221 29.6353 10.9217C29.1846 10.3757 29.1308 10.1174 29.0556 8.13327C28.9965 6.57714 28.7307 4.05329 28.5679 3.50355C28.5244 3.35659 27.6731 2.99511 26.4459 2.60257C26.1045 2.49336 25.8049 2.39276 25.78 2.37909C25.7551 2.36532 25.7911 2.77606 25.8599 3.29185C25.9743 4.14891 25.9723 4.24943 25.8366 4.46096C25.755 4.58818 25.6292 4.69231 25.5572 4.69231C25.4515 4.69231 25.4263 4.84888 25.4263 5.50728C25.4263 6.17129 25.4509 6.32224 25.5593 6.32224C25.6324 6.32224 25.7777 6.40953 25.8822 6.5162C26.0606 6.69839 26.0685 6.76811 26.0144 7.67073C25.9376 8.94887 25.8099 9.71239 25.6039 10.1249C25.0381 11.2577 23.4889 11.5729 22.4783 10.7609C22.0156 10.3891 21.8059 9.87865 21.6576 8.76278C21.4914 7.5129 21.2339 6.1415 20.9356 4.91869C20.7008 3.95577 19.9815 1.65132 19.8515 1.44505C19.7952 1.35576 19.4549 1.3085 18.6196 1.27391L17.4655 1.2261L17.6347 1.94055C17.9762 3.38167 18.1636 4.83674 18.2172 6.46241C18.2836 8.47555 18.2053 8.81422 17.5297 9.43449C16.515 10.3664 15.2648 10.1708 14.3616 8.939C14.3032 8.85922 14.1332 8.28956 13.9839 7.67318C13.5575 5.91222 12.8871 3.88414 12.2457 2.41467L12.0223 1.90279L11.2104 2.12246C8.25292 2.92276 5.96357 4.00675 4.17921 5.45159C2.98453 6.41895 2.22995 7.45495 1.97249 8.48144C1.72699 9.46021 1.96025 10.1925 2.82973 11.1724C3.11601 11.495 3.35016 11.8414 3.35016 11.9423C3.35016 12.2083 2.95855 12.5703 2.67086 12.5703C2.28944 12.5703 1.38326 11.5665 0.974537 10.6913C0.672032 10.0435 0.646768 9.92691 0.646414 9.17461C0.64597 8.21857 0.80201 7.66639 1.33724 6.72972C1.76059 5.98874 3.02762 4.65093 3.90091 4.02269C6.8538 1.8988 10.9746 0.497156 15.4965 0.0786277C16.4297 -0.00775842 19.3006 -0.0286758 20.1511 0.0446709ZM13.679 26.4344C14.7658 26.5043 14.8429 26.5218 15.031 26.7433C15.2886 27.0466 15.2834 27.2844 15.0128 27.5606C14.7591 27.8199 14.6478 27.8261 12.7492 27.6871C11.6361 27.6056 11.438 27.5674 11.2641 27.4005C11.0056 27.1525 11.0076 26.7816 11.2687 26.531C11.4988 26.3102 11.6501 26.3041 13.679 26.4344ZM34.1821 28.1472C34.6887 28.3577 34.6223 29.1419 34.0836 29.312C33.5832 29.4698 32.3538 29.5941 32.1345 29.509C31.8641 29.404 31.6724 28.9506 31.7975 28.7118C31.9582 28.4053 32.1207 28.3305 32.837 28.2339C33.2229 28.1818 33.6383 28.1223 33.7603 28.1017C33.8822 28.0809 34.072 28.1015 34.1821 28.1472Z" fill="black"/>
</svg>
